<svg width="244" height="120" viewBox="0 0 244 120" fill="none" xmlns="http://www.w3.org/2000/svg">
<path d="M60 0C36.1735 0 14.8165 9.24 0 24L60 120L120 24C105.25 9.3 83.8265 0 60 0ZM26.6296 30C26.6296 23.4 32.6363 18 39.9778 18C47.3192 18 53.3259 23.4 53.3259 30C53.3259 36.6 47.3192 42 39.9778 42C32.6363 42 26.6296 36.6 26.6296 30ZM60 78C52.6585 78 46.6518 72.6 46.6518 66C46.6518 59.4 52.6585 54 60 54C67.3415 54 73.3482 59.4 73.3482 66C73.3482 72.6 67.3415 78 60 78Z" fill="white"/>
<path d="M130.758 62.1641H130.336C128.203 62.1641 126.598 62.6504 125.52 63.623C124.219 64.7949 123.568 66.7344 123.568 69.4414C123.568 70.1914 123.65 70.7891 123.814 71.2344C123.861 71.3867 123.92 71.5215 123.99 71.6387C124.037 71.7207 124.061 71.8027 124.061 71.8848C122.76 71.8848 121.811 71.627 121.213 71.1113C120.545 70.5488 120.211 69.6465 120.211 68.4043C120.211 67.1621 120.439 65.9844 120.896 64.8711C121.365 63.7461 122.074 62.7617 123.023 61.918C124.043 61.0039 125.338 60.2949 126.908 59.791C128.49 59.2871 130.354 59.0352 132.498 59.0352C133.729 59.0352 134.906 59.1055 136.031 59.2461C136.383 59.2812 136.84 59.3457 137.402 59.4395C138.34 59.6152 139.242 59.7324 140.109 59.791C140.531 59.8379 141.064 59.8613 141.709 59.8613C142.506 59.8613 143.268 59.791 143.994 59.6504C144.721 59.5098 145.354 59.3281 145.893 59.1055C145.834 60.6758 145.43 61.8301 144.68 62.5684C143.941 63.3066 142.846 63.6758 141.393 63.6758C140.607 63.6758 139.816 63.6113 139.02 63.4824C138.223 63.3535 137.15 63.1543 135.803 62.8848L130.828 86H125.66L130.758 62.1641ZM142.588 86.1406C140.807 86.1406 139.43 85.707 138.457 84.8398C137.367 83.8789 136.822 82.4199 136.822 80.4629C136.822 79.7246 136.898 78.9102 137.051 78.0195C137.203 77.1172 137.438 76.209 137.754 75.2949C138.48 73.1152 139.518 71.375 140.865 70.0742C142.494 68.4805 144.434 67.6836 146.684 67.6836C149.766 67.6836 151.307 69.5996 151.307 73.4316V73.4668C151.377 73.4902 151.436 73.502 151.482 73.502H151.693C152.49 73.502 153.434 73.2793 154.523 72.834C155.484 72.4355 156.393 71.9375 157.248 71.3398L157.564 72.3242C156.861 73.0625 155.953 73.6895 154.84 74.2051C153.738 74.7207 152.52 75.0898 151.184 75.3125C151.043 76.9414 150.727 78.4297 150.234 79.7773C149.742 81.1133 149.109 82.2617 148.336 83.2227C147.574 84.1602 146.701 84.8809 145.717 85.3848C144.732 85.8887 143.689 86.1406 142.588 86.1406ZM144.029 82.9062C144.451 82.9062 144.879 82.7188 145.312 82.3438C145.758 81.957 146.174 81.4238 146.561 80.7441C146.947 80.0645 147.281 79.2676 147.562 78.3535C147.844 77.4395 148.055 76.4609 148.195 75.418C147.844 75.3242 147.592 75.1484 147.439 74.8906C147.299 74.6328 147.229 74.3047 147.229 73.9062C147.229 73.4141 147.328 73.0039 147.527 72.6758C147.727 72.3477 148.002 72.1074 148.354 71.9551C148.307 71.1934 148.184 70.6484 147.984 70.3203C147.879 70.1562 147.744 70.0391 147.58 69.9688C147.428 69.8984 147.229 69.8633 146.982 69.8633C146.174 69.8633 145.383 70.4727 144.609 71.6914C143.895 72.793 143.309 74.1523 142.852 75.7695C142.406 77.3516 142.184 78.7578 142.184 79.9883C142.184 80.5859 142.213 81.0723 142.271 81.4473C142.342 81.8223 142.453 82.1152 142.605 82.3262C142.746 82.5371 142.928 82.6895 143.15 82.7832C143.373 82.8652 143.666 82.9062 144.029 82.9062ZM166.143 86.2109C164.654 86.2109 163.553 85.7891 162.838 84.9453C162.217 84.2188 161.906 83.2871 161.906 82.1504C161.906 81.6113 161.971 80.9844 162.1 80.2695C162.24 79.5547 162.445 78.6348 162.715 77.5098C162.984 76.3613 163.184 75.4473 163.312 74.7676C163.453 74.0762 163.523 73.4785 163.523 72.9746C163.523 71.7441 163.09 71.1289 162.223 71.1289C161.613 71.1289 161.051 71.4512 160.535 72.0957C160.102 72.6465 159.727 73.4316 159.41 74.4512L156.967 86H151.781L155.596 68H160.781L160.395 69.8633C161.098 69.0781 161.854 68.5273 162.662 68.2109C163.26 67.9766 163.904 67.8594 164.596 67.8594C165.814 67.8594 166.775 68.1758 167.479 68.8086C168.229 69.5 168.604 70.5371 168.604 71.9199C168.604 72.752 168.451 73.8359 168.146 75.1719C168.064 75.5586 167.93 76.1387 167.742 76.9121C167.402 78.2129 167.156 79.25 167.004 80.0234C166.91 80.5156 166.863 80.9141 166.863 81.2188C166.863 81.6992 166.969 82.0742 167.18 82.3438C167.402 82.6016 167.777 82.7305 168.305 82.7305C169.02 82.7305 169.623 82.4375 170.115 81.8516C170.49 81.4062 170.895 80.6387 171.328 79.5488H172.84C171.949 82.1855 170.824 84.0312 169.465 85.0859C168.504 85.8359 167.396 86.2109 166.143 86.2109ZM176.936 95C176.373 95 175.846 94.9238 175.354 94.7715C174.873 94.6309 174.457 94.4141 174.105 94.1211C173.73 93.8281 173.438 93.459 173.227 93.0137C173.016 92.5801 172.91 92.0762 172.91 91.502C172.91 90.1426 173.549 88.9766 174.826 88.0039C175.787 87.2891 177.105 86.668 178.781 86.1406L179.221 84.207C178.518 84.9805 177.756 85.5254 176.936 85.8418C176.303 86.0879 175.623 86.2109 174.896 86.2109C173.748 86.2109 172.84 85.8711 172.172 85.1914C171.422 84.4414 171.047 83.3457 171.047 81.9043C171.047 81.2246 171.141 80.4395 171.328 79.5488L173.771 68H178.957L176.373 80.2344C176.303 80.5273 176.268 80.832 176.268 81.1484C176.268 81.6055 176.344 81.9688 176.496 82.2383C176.672 82.5664 176.953 82.7305 177.34 82.7305C177.973 82.7305 178.541 82.4492 179.045 81.8867C179.479 81.4062 179.848 80.7031 180.152 79.7773L182.666 68H187.852L184.283 84.6992C185.42 84.3242 186.328 83.7617 187.008 83.0117C187.746 82.2031 188.35 81.0488 188.818 79.5488H190.33C189.686 81.6816 188.725 83.3281 187.447 84.4883C186.51 85.332 185.35 85.9297 183.967 86.2812L183.422 88.8828C182.965 91.1797 182.051 92.8438 180.68 93.875C179.684 94.625 178.436 95 176.936 95ZM176.109 92.1875C176.473 92.1875 176.859 91.9238 177.27 91.3965C177.668 90.8809 177.979 90.0781 178.201 88.9883L178.412 87.9512C177.322 88.3613 176.508 88.7773 175.969 89.1992C175.254 89.7383 174.896 90.3418 174.896 91.0098C174.896 91.3262 174.996 91.5898 175.195 91.8008C175.418 92.0586 175.723 92.1875 176.109 92.1875ZM128.279 93.0957L133.605 92.3926L131.057 104.416C132.193 104.334 133.277 103.807 134.309 102.834C135.246 101.955 135.99 100.842 136.541 99.4941C137.08 98.2051 137.35 96.8926 137.35 95.5566C137.35 94.1504 137.004 92.9961 136.312 92.0938C135.938 91.6367 135.463 91.2852 134.889 91.0391C134.314 90.7812 133.646 90.6523 132.885 90.6523C131.432 90.6523 130.125 90.8516 128.965 91.25C127.816 91.6484 126.838 92.2227 126.029 92.9727C125.221 93.7227 124.605 94.6426 124.184 95.7324C123.773 96.8223 123.568 98.0469 123.568 99.4062C123.568 100.156 123.65 100.754 123.814 101.199C123.861 101.352 123.92 101.486 123.99 101.604C124.037 101.686 124.061 101.768 124.061 101.85C122.76 101.85 121.811 101.592 121.213 101.076C120.545 100.514 120.211 99.6055 120.211 98.3516C120.211 97.5664 120.381 96.793 120.721 96.0312C121.061 95.2578 121.541 94.5137 122.162 93.7988C122.748 93.1191 123.445 92.4863 124.254 91.9004C125.074 91.3027 125.959 90.7871 126.908 90.3535C128.9 89.4512 130.881 89 132.85 89C135.627 89 137.783 89.7207 139.318 91.1621C139.998 91.8066 140.502 92.5508 140.83 93.3945C141.17 94.2383 141.34 95.1348 141.34 96.084C141.34 97.2441 141.1 98.3984 140.619 99.5469C140.15 100.695 139.471 101.721 138.58 102.623C137.643 103.584 136.523 104.346 135.223 104.908C133.934 105.459 132.51 105.734 130.951 105.734H130.758L128.561 116H123.393L128.279 93.0957ZM146.648 96.0488C146.262 96.0488 145.893 95.9785 145.541 95.8379C145.189 95.6855 144.885 95.4805 144.627 95.2227C144.369 94.9766 144.164 94.6777 144.012 94.3262C143.871 93.9746 143.801 93.6055 143.801 93.2188C143.801 92.832 143.871 92.4629 144.012 92.1113C144.164 91.7598 144.369 91.4492 144.627 91.1797C144.885 90.9102 145.189 90.7051 145.541 90.5645C145.893 90.4121 146.262 90.3359 146.648 90.3359C147.035 90.3359 147.404 90.4121 147.756 90.5645C148.107 90.7051 148.418 90.9102 148.688 91.1797C148.957 91.4492 149.162 91.7598 149.303 92.1113C149.455 92.4629 149.531 92.832 149.531 93.2188C149.531 93.6055 149.455 93.9746 149.303 94.3262C149.162 94.6777 148.957 94.9766 148.688 95.2227C148.418 95.4805 148.107 95.6855 147.756 95.8379C147.404 95.9785 147.035 96.0488 146.648 96.0488ZM144.205 116.211C143.057 116.211 142.148 115.871 141.48 115.191C140.73 114.441 140.355 113.346 140.355 111.904C140.355 111.225 140.449 110.439 140.637 109.549L143.08 98H148.266L145.682 110.234C145.588 110.539 145.541 110.926 145.541 111.395C145.541 111.887 145.652 112.232 145.875 112.432C146.109 112.631 146.484 112.73 147 112.73C147.352 112.73 147.691 112.654 148.02 112.502C148.359 112.338 148.67 112.115 148.951 111.834C149.525 111.26 149.959 110.498 150.252 109.549H151.764C151.119 111.365 150.311 112.812 149.338 113.891C148.518 114.77 147.592 115.402 146.561 115.789C145.811 116.07 145.025 116.211 144.205 116.211ZM159.445 99.9512H157.441C156.797 99.9512 156.328 99.9805 156.035 100.039C155.648 100.109 155.455 100.268 155.455 100.514C155.455 100.572 155.479 100.607 155.525 100.619C155.619 100.643 155.707 100.725 155.789 100.865C155.824 100.947 155.842 101.094 155.842 101.305C155.842 101.938 155.643 102.424 155.244 102.764C154.869 103.068 154.424 103.221 153.908 103.221C153.486 103.221 153.111 103.086 152.783 102.816C152.432 102.523 152.256 102.131 152.256 101.639C152.256 101.264 152.355 100.865 152.555 100.443C152.754 100.01 153.029 99.6172 153.381 99.2656C153.756 98.8789 154.201 98.5742 154.717 98.3516C155.244 98.1172 155.812 98 156.422 98H165.686L156.861 113.223C156.979 113.234 157.389 113.275 158.092 113.346C158.584 113.416 159.082 113.451 159.586 113.451C160.078 113.451 160.471 113.398 160.764 113.293C161.057 113.188 161.232 113 161.291 112.73C161.057 112.707 160.881 112.631 160.764 112.502C160.658 112.361 160.605 112.186 160.605 111.975C160.605 111.799 160.646 111.623 160.729 111.447C160.822 111.26 160.951 111.09 161.115 110.938C161.514 110.598 162.012 110.428 162.609 110.428C163.148 110.428 163.547 110.586 163.805 110.902C164.074 111.219 164.209 111.635 164.209 112.15C164.209 112.572 164.109 113.012 163.91 113.469C163.711 113.914 163.424 114.324 163.049 114.699C162.65 115.098 162.176 115.414 161.625 115.648C161.086 115.883 160.482 116 159.814 116H150.27L159.445 99.9512ZM174.879 99.9512H172.875C172.23 99.9512 171.762 99.9805 171.469 100.039C171.082 100.109 170.889 100.268 170.889 100.514C170.889 100.572 170.912 100.607 170.959 100.619C171.053 100.643 171.141 100.725 171.223 100.865C171.258 100.947 171.275 101.094 171.275 101.305C171.275 101.938 171.076 102.424 170.678 102.764C170.303 103.068 169.857 103.221 169.342 103.221C168.92 103.221 168.545 103.086 168.217 102.816C167.865 102.523 167.689 102.131 167.689 101.639C167.689 101.264 167.789 100.865 167.988 100.443C168.188 100.01 168.463 99.6172 168.814 99.2656C169.189 98.8789 169.635 98.5742 170.15 98.3516C170.678 98.1172 171.246 98 171.855 98H181.119L172.295 113.223C172.412 113.234 172.822 113.275 173.525 113.346C174.018 113.416 174.516 113.451 175.02 113.451C175.512 113.451 175.904 113.398 176.197 113.293C176.49 113.188 176.666 113 176.725 112.73C176.49 112.707 176.314 112.631 176.197 112.502C176.092 112.361 176.039 112.186 176.039 111.975C176.039 111.799 176.08 111.623 176.162 111.447C176.256 111.26 176.385 111.09 176.549 110.938C176.947 110.598 177.445 110.428 178.043 110.428C178.582 110.428 178.98 110.586 179.238 110.902C179.508 111.219 179.643 111.635 179.643 112.15C179.643 112.572 179.543 113.012 179.344 113.469C179.145 113.914 178.857 114.324 178.482 114.699C178.084 115.098 177.609 115.414 177.059 115.648C176.52 115.883 175.916 116 175.248 116H165.703L174.879 99.9512ZM185.461 116.211C184.09 116.211 182.982 115.783 182.139 114.928C181.154 113.92 180.662 112.42 180.662 110.428C180.662 109.584 180.75 108.693 180.926 107.756C181.09 106.818 181.336 105.893 181.664 104.979C182.414 102.916 183.439 101.252 184.74 99.9863C186.24 98.5449 187.969 97.8242 189.926 97.8242C190.898 97.8242 191.625 97.9941 192.105 98.334C192.598 98.6621 192.844 99.1016 192.844 99.6523V99.916L193.23 98H198.416L195.832 110.234C195.727 110.586 195.674 110.973 195.674 111.395C195.674 112.426 196.166 112.941 197.15 112.941C197.807 112.941 198.404 112.607 198.943 111.939C199.4 111.377 199.775 110.58 200.068 109.549H201.58C200.936 111.377 200.156 112.824 199.242 113.891C198.469 114.77 197.596 115.402 196.623 115.789C195.908 116.07 195.152 116.211 194.355 116.211C193.336 116.211 192.521 115.936 191.912 115.385C191.314 114.822 190.951 113.996 190.822 112.906C190.143 113.867 189.428 114.617 188.678 115.156C187.717 115.859 186.645 116.211 185.461 116.211ZM187.799 112.73C188.068 112.73 188.35 112.66 188.643 112.52C188.947 112.379 189.24 112.18 189.521 111.922C190.154 111.312 190.576 110.521 190.787 109.549L192.51 101.428C192.51 101.311 192.48 101.176 192.422 101.023C192.375 100.859 192.305 100.707 192.211 100.566C191.93 100.227 191.537 100.057 191.033 100.057C190.553 100.057 190.084 100.215 189.627 100.531C189.182 100.848 188.76 101.287 188.361 101.85C187.658 102.869 187.078 104.199 186.621 105.84C186.41 106.566 186.252 107.287 186.146 108.002C186.041 108.705 185.988 109.344 185.988 109.918C185.988 111.113 186.211 111.922 186.656 112.344C186.809 112.508 186.979 112.613 187.166 112.66C187.354 112.707 187.564 112.73 187.799 112.73ZM202.529 98H207.715L207.258 100.232C208.078 99.5059 208.746 98.9902 209.262 98.6855C210.059 98.2285 210.838 98 211.6 98C212.373 98 212.994 98.2754 213.463 98.8262C213.674 99.0723 213.832 99.3594 213.938 99.6875C214.043 100.004 214.096 100.344 214.096 100.707C214.096 101.035 214.043 101.352 213.938 101.656C213.832 101.961 213.674 102.236 213.463 102.482C213.229 102.74 212.941 102.945 212.602 103.098C212.273 103.25 211.904 103.326 211.494 103.326C211.178 103.326 210.926 103.273 210.738 103.168C210.551 103.062 210.404 102.91 210.299 102.711C210.205 102.512 210.141 102.318 210.105 102.131C210 101.627 209.895 101.293 209.789 101.129C209.707 101.012 209.578 100.953 209.402 100.953C208.898 100.953 208.471 101.059 208.119 101.27C207.768 101.48 207.322 101.832 206.783 102.324L203.9 116H198.715L202.529 98ZM219.633 96.0488C219.246 96.0488 218.877 95.9785 218.525 95.8379C218.174 95.6855 217.869 95.4805 217.611 95.2227C217.354 94.9766 217.148 94.6777 216.996 94.3262C216.855 93.9746 216.785 93.6055 216.785 93.2188C216.785 92.832 216.855 92.4629 216.996 92.1113C217.148 91.7598 217.354 91.4492 217.611 91.1797C217.869 90.9102 218.174 90.7051 218.525 90.5645C218.877 90.4121 219.246 90.3359 219.633 90.3359C220.02 90.3359 220.389 90.4121 220.74 90.5645C221.092 90.7051 221.402 90.9102 221.672 91.1797C221.941 91.4492 222.146 91.7598 222.287 92.1113C222.439 92.4629 222.516 92.832 222.516 93.2188C222.516 93.6055 222.439 93.9746 222.287 94.3262C222.146 94.6777 221.941 94.9766 221.672 95.2227C221.402 95.4805 221.092 95.6855 220.74 95.8379C220.389 95.9785 220.02 96.0488 219.633 96.0488ZM217.189 116.211C216.041 116.211 215.133 115.871 214.465 115.191C213.715 114.441 213.34 113.346 213.34 111.904C213.34 111.225 213.434 110.439 213.621 109.549L216.064 98H221.25L218.666 110.234C218.572 110.539 218.525 110.926 218.525 111.395C218.525 111.887 218.637 112.232 218.859 112.432C219.094 112.631 219.469 112.73 219.984 112.73C220.336 112.73 220.676 112.654 221.004 112.502C221.344 112.338 221.654 112.115 221.936 111.834C222.51 111.26 222.943 110.498 223.236 109.549H224.748C224.104 111.365 223.295 112.812 222.322 113.891C221.502 114.77 220.576 115.402 219.545 115.789C218.795 116.07 218.01 116.211 217.189 116.211ZM227.578 116.211C226.207 116.211 225.1 115.783 224.256 114.928C223.271 113.92 222.779 112.42 222.779 110.428C222.779 109.584 222.867 108.693 223.043 107.756C223.207 106.818 223.453 105.893 223.781 104.979C224.531 102.916 225.557 101.252 226.857 99.9863C228.357 98.5449 230.086 97.8242 232.043 97.8242C233.016 97.8242 233.742 97.9941 234.223 98.334C234.715 98.6621 234.961 99.1016 234.961 99.6523V99.916L235.348 98H240.533L237.949 110.234C237.844 110.586 237.791 110.973 237.791 111.395C237.791 112.426 238.283 112.941 239.268 112.941C239.924 112.941 240.521 112.607 241.061 111.939C241.518 111.377 241.893 110.58 242.186 109.549H243.697C243.053 111.377 242.273 112.824 241.359 113.891C240.586 114.77 239.713 115.402 238.74 115.789C238.025 116.07 237.27 116.211 236.473 116.211C235.453 116.211 234.639 115.936 234.029 115.385C233.432 114.822 233.068 113.996 232.939 112.906C232.26 113.867 231.545 114.617 230.795 115.156C229.834 115.859 228.762 116.211 227.578 116.211ZM229.916 112.73C230.186 112.73 230.467 112.66 230.76 112.52C231.064 112.379 231.357 112.18 231.639 111.922C232.271 111.312 232.693 110.521 232.904 109.549L234.627 101.428C234.627 101.311 234.598 101.176 234.539 101.023C234.492 100.859 234.422 100.707 234.328 100.566C234.047 100.227 233.654 100.057 233.15 100.057C232.67 100.057 232.201 100.215 231.744 100.531C231.299 100.848 230.877 101.287 230.479 101.85C229.775 102.869 229.195 104.199 228.738 105.84C228.527 106.566 228.369 107.287 228.264 108.002C228.158 108.705 228.105 109.344 228.105 109.918C228.105 111.113 228.328 111.922 228.773 112.344C228.926 112.508 229.096 112.613 229.283 112.66C229.471 112.707 229.682 112.73 229.916 112.73Z" fill="white"/>
</svg>
